<?xml version="1.0" encoding="UTF-8"?>
<svg width="900px" height="382px" viewBox="0 0 900 382" version="1.1" xmlns="http://www.w3.org/2000/svg" xmlns:xlink="http://www.w3.org/1999/xlink">
    <!-- Generator: Sketch 55.1 (78136) - https://sketchapp.com -->
    <title>Bit Academy Logo Black / bit_academy_logo_black</title>
    <desc>Created with Sketch.</desc>
    <g id="Style" stroke="none" stroke-width="1" fill="none" fill-rule="evenodd">
        <g id="Bit-Academy-Logo" transform="translate(-256.000000, -295.000000)" fill="#000000" fill-rule="nonzero">
            <path d="M317.217184,338.819779 C327.957094,338.819779 337.229078,341.218387 345.033413,346.015674 C352.837748,350.812962 358.74461,357.400183 362.754177,365.777536 C366.763743,374.154888 368.768496,383.785119 368.768496,394.668518 C368.768496,405.408713 366.727944,415.003144 362.646778,423.452098 C358.565612,431.901052 352.65875,438.488273 344.926014,443.213959 C337.193279,447.939645 327.885496,450.302453 317.002387,450.302453 C309.842446,450.302453 303.183802,448.691448 297.026253,445.469389 C290.868704,442.24733 286.143215,437.915517 282.849642,432.473817 L282.849642,448.58403 L262.01432,448.58403 L262.01432,295.214803 L282.849642,295.214803 L282.849642,356.433612 C286.143215,351.135116 290.868704,346.874902 297.026253,343.652843 C303.183802,340.430784 309.914045,338.819779 317.217184,338.819779 Z M347.718377,362.233289 L282.849642,362.233289 L282.849642,427.318549 L347.718377,427.318549 L347.718377,362.233289 Z M389.389021,295 L410.224344,295 L410.224344,315.835875 L389.389021,315.835875 L389.389021,295 Z M389.389021,448.58403 L389.389021,340.538202 L410.224344,340.538202 L410.224344,448.58403 L389.389021,448.58403 Z M501.727924,429.68138 L501.727924,448.58403 L484.75895,448.58403 C473.875841,448.58403 465.212443,445.43362 458.768496,439.132705 C452.32455,432.831791 449.102625,424.168163 449.102625,413.141562 L449.102625,358.581641 L426.97852,358.581641 L426.97852,340.538202 L449.102625,340.538202 L449.102625,306.599353 L469.937947,306.599353 L469.937947,340.538202 L501.727924,340.538202 L501.727924,358.581641 L469.937947,358.581641 L469.937947,429.68138 L501.727924,429.68138 Z M362.968974,525.134392 L362.968974,633.180221 L342.133652,633.180221 L342.133652,618.573628 C339.556073,623.299314 335.081177,627.201526 328.708831,630.280382 C322.336484,633.359238 315.427245,634.898643 307.980907,634.898643 C297.097798,634.898643 287.754216,632.500036 279.949881,627.702748 C272.145546,622.905461 266.202884,616.31824 262.121718,607.940887 C258.040552,599.563534 256,590.004904 256,579.264708 C256,568.38131 258.040552,558.751079 262.121718,550.373726 C266.202884,541.996373 272.145546,535.409152 279.949881,530.611865 C287.754216,525.814577 297.026199,523.41597 307.76611,523.41597 C314.782851,523.41597 321.405697,524.919574 327.634845,527.926829 C333.863993,530.934084 338.69688,534.800497 342.133652,539.526183 L342.133652,525.134392 L362.968974,525.134392 Z M342.348449,546.829479 L277.050119,546.829479 L277.050119,611.91474 L342.348449,611.91474 L342.348449,546.829479 Z M437.933174,634.898643 C426.906866,634.898643 417.348489,632.356835 409.257757,627.273143 C401.167024,622.18945 394.973768,615.423228 390.677804,606.974274 C386.38184,598.52532 384.23389,589.21729 384.23389,579.049905 C384.23389,568.88252 386.38184,559.57449 390.677804,551.125536 C394.973768,542.676582 401.167024,535.91036 409.257757,530.826668 C417.348489,525.742975 426.906866,523.201167 437.933174,523.201167 C446.381904,523.201167 454.25772,524.812172 461.560859,528.034231 C468.863998,531.256289 474.878258,535.838704 479.603819,541.781612 C484.329379,547.724521 487.193312,554.705543 488.195704,562.724889 L467.360382,562.724889 C466.35799,556.567177 463.100266,551.483561 457.587112,547.473888 C452.073958,543.464215 445.665908,541.459408 438.362768,541.459408 C427.909256,541.459408 419.890243,544.967819 414.305489,551.984747 C408.720736,559.001675 405.928401,568.023304 405.928401,579.049905 C405.928401,589.933303 408.756535,598.919132 414.412888,606.007661 C420.069241,613.096191 428.052454,616.640402 438.362768,616.640402 C445.665908,616.640402 451.930761,614.850396 457.157518,611.270331 C462.384274,607.690266 465.856793,602.82145 467.575179,596.663738 L488.195704,596.663738 C486.477318,608.119947 481.071645,617.356376 471.97852,624.373304 C462.885396,631.390232 451.537061,634.898643 437.933174,634.898643 Z M608.911695,525.134392 L608.911695,633.180221 L588.076372,633.180221 L588.076372,618.573628 C585.498794,623.299314 581.023898,627.201526 574.651551,630.280382 C568.279204,633.359238 561.369966,634.898643 553.923628,634.898643 C543.040518,634.898643 533.696936,632.500036 525.892601,627.702748 C518.088266,622.905461 512.145605,616.31824 508.064439,607.940887 C503.983273,599.563534 501.942721,590.004904 501.942721,579.264708 C501.942721,568.38131 503.983273,558.751079 508.064439,550.373726 C512.145605,541.996373 518.088266,535.409152 525.892601,530.611865 C533.696936,525.814577 542.96892,523.41597 553.708831,523.41597 C560.725572,523.41597 567.348418,524.919574 573.577566,527.926829 C579.806714,530.934084 584.639601,534.800497 588.076372,539.526183 L588.076372,525.134392 L608.911695,525.134392 Z M588.291169,546.829479 L522.99284,546.829479 L522.99284,611.91474 L588.291169,611.91474 L588.291169,546.829479 Z M737.145585,479.810993 L737.145585,633.180221 L716.310263,633.180221 L716.310263,617.070008 C713.01669,622.511707 708.2912,626.843521 702.133652,630.06558 C695.976103,633.287638 689.317458,634.898643 682.157518,634.898643 C671.417607,634.898643 662.145624,632.500036 654.341289,627.702748 C646.536954,622.905461 640.594292,616.31824 636.513126,607.940887 C632.431961,599.563534 630.391408,590.004904 630.391408,579.264708 C630.391408,568.524512 632.431961,558.930081 636.513126,550.481127 C640.594292,542.032173 646.501155,535.409152 654.23389,530.611865 C661.966626,525.814577 671.20281,523.41597 681.942721,523.41597 C689.24586,523.41597 695.976103,525.026975 702.133652,528.249034 C708.2912,531.471092 713.01669,535.731306 716.310263,541.029802 L716.310263,479.810993 L737.145585,479.810993 Z M716.310263,546.829479 L651.441527,546.829479 L651.441527,611.91474 L716.310263,611.91474 L716.310263,546.829479 Z M862.801909,597.952555 C860.797126,609.122359 855.284055,618.072387 846.26253,624.80291 C837.241005,631.533433 826.071666,634.898643 812.754177,634.898643 C801.871067,634.898643 792.31269,632.321035 784.078759,627.165741 C775.844828,622.010447 769.508375,615.136825 765.069212,606.544669 C760.630049,597.952512 758.410501,588.572882 758.410501,578.405497 C758.410501,568.238111 760.486853,558.965881 764.639618,550.588529 C768.792384,542.211176 774.806643,535.552355 782.682578,530.611865 C790.558512,525.671375 799.866295,523.201167 810.606205,523.201167 C821.346116,523.201167 830.5823,525.528174 838.315036,530.182259 C846.047771,534.836344 851.918834,541.065564 855.928401,548.870106 C859.937968,556.674648 861.942721,565.230876 861.942721,574.539045 C861.942721,577.403098 861.799524,580.123906 861.513126,582.701553 L778.816229,582.701553 C779.675422,593.012141 783.18374,601.317768 789.341289,607.618683 C795.498837,613.919598 803.303055,617.070008 812.754177,617.070008 C820.630111,617.070008 827.073961,615.423202 832.085919,612.129542 C837.097877,608.835882 840.3914,604.110267 841.966587,597.952555 L862.801909,597.952555 Z M810.606205,539.955788 C802.157476,539.955788 795.248237,542.282796 789.878282,546.936881 C784.508326,551.590965 781.035807,558.428787 779.460621,567.450552 L840.892601,567.450552 C840.176607,559.1448 837.169478,552.485979 831.871122,547.473888 C826.572766,542.461796 819.484531,539.955788 810.606205,539.955788 Z M1006.2864,523.41597 C1017.8855,523.41597 1027.12168,527.139182 1033.99523,534.585717 C1040.86877,542.032253 1044.30549,551.984685 1044.30549,564.443312 L1044.30549,633.180221 L1023.47017,633.180221 L1023.47017,546.614676 L974.066826,546.614676 L974.066826,633.180221 L953.446301,633.180221 L953.446301,546.614676 L904.257757,546.614676 L904.257757,633.180221 L883.422434,633.180221 L883.422434,525.134392 L904.257757,525.134392 L904.257757,539.31138 C907.551329,534.585694 911.847229,530.790881 917.145585,527.926829 C922.443941,525.062777 928.243405,523.559172 934.544153,523.41597 L937.336516,523.41597 C944.353257,523.559172 950.797107,525.062777 956.668258,527.926829 C962.539409,530.790881 967.336497,534.585694 971.059666,539.31138 C974.782835,534.585694 979.544124,530.790881 985.343675,527.926829 C991.143227,525.062777 997.551278,523.559172 1004.56802,523.41597 L1006.2864,523.41597 Z M1101.65632,677 L1081.68019,677 L1096.2864,634.254235 L1056.11933,524.91959 L1077.59905,524.91959 L1105.95227,606.115063 L1134.52029,524.91959 L1156,524.91959 L1117.98091,629.31377 L1101.65632,677 Z" id="Bit-Academy-Logo-Black-/-bit_academy_logo_black"></path>
        </g>
    </g>
</svg>